<svg width="293" height="62" viewBox="0 0 293 62" fill="none" xmlns="http://www.w3.org/2000/svg">
<path d="M72.6616 47.631V52.8584C72.6616 53.4799 72.8229 53.948 73.1454 54.2626C73.4758 54.5773 73.9321 54.7346 74.5142 54.7346C75.1042 54.7346 75.5605 54.5773 75.883 54.2626C76.2134 53.948 76.3786 53.4799 76.3786 52.8584V47.631H77.7238V52.8348C77.7238 53.5035 77.5783 54.0699 77.2872 54.534C76.9961 54.9982 76.6067 55.3443 76.119 55.5724C75.6313 55.8006 75.0924 55.9146 74.5024 55.9146C73.9124 55.9146 73.3735 55.8006 72.8858 55.5724C72.4059 55.3443 72.0244 54.9982 71.7412 54.534C71.458 54.0699 71.3164 53.5035 71.3164 52.8348V47.631H72.6616ZM85.6821 50.0736C85.6821 50.4906 85.5837 50.8839 85.3871 51.2536C85.1904 51.6234 84.8757 51.9262 84.4431 52.1622C84.0104 52.3904 83.4558 52.5044 82.7793 52.5044H81.2925V55.832H79.9473V47.631H82.7793C83.4086 47.631 83.9396 47.7412 84.3723 47.9614C84.8128 48.1738 85.1393 48.4649 85.3517 48.8346C85.5719 49.2044 85.6821 49.6174 85.6821 50.0736ZM82.7793 51.407C83.2906 51.407 83.6721 51.293 83.9239 51.0648C84.1756 50.8288 84.3015 50.4984 84.3015 50.0736C84.3015 49.1768 83.7941 48.7284 82.7793 48.7284H81.2925V51.407H82.7793ZM90.1393 55.9146C89.5886 55.9146 89.093 55.8202 88.6525 55.6314C88.2119 55.4348 87.8658 55.1594 87.6141 54.8054C87.3623 54.4514 87.2365 54.0384 87.2365 53.5664H88.6761C88.7075 53.9204 88.8452 54.2115 89.0891 54.4396C89.3408 54.6678 89.6909 54.7818 90.1393 54.7818C90.6034 54.7818 90.9653 54.6717 91.2249 54.4514C91.4845 54.2233 91.6143 53.9322 91.6143 53.5782C91.6143 53.3029 91.5317 53.0787 91.3665 52.9056C91.2091 52.7326 91.0085 52.5988 90.7647 52.5044C90.5287 52.41 90.1983 52.3078 89.7735 52.1976C89.2385 52.056 88.8019 51.9144 88.4637 51.7728C88.1333 51.6234 87.8501 51.3952 87.6141 51.0884C87.3781 50.7816 87.2601 50.3726 87.2601 49.8612C87.2601 49.3892 87.3781 48.9762 87.6141 48.6222C87.8501 48.2682 88.1805 47.9968 88.6053 47.808C89.0301 47.6192 89.5217 47.5248 90.0803 47.5248C90.8748 47.5248 91.5238 47.7254 92.0273 48.1266C92.5386 48.52 92.8218 49.0628 92.8769 49.755H91.3901C91.3665 49.4561 91.2249 49.2004 90.9653 48.988C90.7057 48.7756 90.3635 48.6694 89.9387 48.6694C89.5532 48.6694 89.2385 48.7678 88.9947 48.9644C88.7508 49.1611 88.6289 49.4443 88.6289 49.814C88.6289 50.0658 88.7036 50.2742 88.8531 50.4394C89.0104 50.5968 89.2071 50.7226 89.4431 50.817C89.6791 50.9114 90.0016 51.0137 90.4107 51.1238C90.9535 51.2733 91.394 51.4228 91.7323 51.5722C92.0784 51.7217 92.3695 51.9538 92.6055 52.2684C92.8493 52.5752 92.9713 52.9882 92.9713 53.5074C92.9713 53.9244 92.8572 54.3177 92.6291 54.6874C92.4088 55.0572 92.0823 55.3561 91.6497 55.5842C91.2249 55.8045 90.7214 55.9146 90.1393 55.9146ZM99.5499 55.832L96.3757 52.1622V55.832H95.0305V47.631H96.3757V51.3716L99.5617 47.631H101.249L97.6855 51.7374L101.308 55.832H99.5499ZM104.315 47.631V55.832H102.97V47.631H104.315ZM107.898 54.7464H110.671V55.832H106.553V47.631H107.898V54.7464ZM113.613 54.7464H116.386V55.832H112.268V47.631H113.613V54.7464ZM119.329 47.631V55.832H117.983V47.631H119.329ZM128.305 55.832H126.959L122.912 49.7078V55.832H121.567V47.6192H122.912L126.959 53.7316V47.6192H128.305V55.832ZM136.478 49.991C136.266 49.582 135.971 49.2752 135.593 49.0706C135.216 48.8582 134.779 48.752 134.284 48.752C133.741 48.752 133.257 48.874 132.832 49.1178C132.407 49.3617 132.073 49.7078 131.829 50.1562C131.593 50.6046 131.475 51.1238 131.475 51.7138C131.475 52.3038 131.593 52.827 131.829 53.2832C132.073 53.7316 132.407 54.0778 132.832 54.3216C133.257 54.5655 133.741 54.6874 134.284 54.6874C135.015 54.6874 135.609 54.4829 136.065 54.0738C136.522 53.6648 136.801 53.1102 136.903 52.41H133.823V51.3362H138.343V52.3864C138.256 53.0236 138.028 53.6097 137.658 54.1446C137.297 54.6796 136.821 55.1083 136.231 55.4308C135.648 55.7455 134.999 55.9028 134.284 55.9028C133.513 55.9028 132.809 55.7258 132.171 55.3718C131.534 55.01 131.027 54.5104 130.649 53.8732C130.279 53.236 130.095 52.5162 130.095 51.7138C130.095 50.9114 130.279 50.1916 130.649 49.5544C131.027 48.9172 131.534 48.4216 132.171 48.0676C132.816 47.7058 133.521 47.5248 134.284 47.5248C135.157 47.5248 135.932 47.7412 136.608 48.1738C137.293 48.5986 137.788 49.2044 138.095 49.991H136.478ZM146.381 55.9146C145.83 55.9146 145.335 55.8202 144.894 55.6314C144.454 55.4348 144.108 55.1594 143.856 54.8054C143.604 54.4514 143.478 54.0384 143.478 53.5664H144.918C144.949 53.9204 145.087 54.2115 145.331 54.4396C145.583 54.6678 145.933 54.7818 146.381 54.7818C146.845 54.7818 147.207 54.6717 147.467 54.4514C147.726 54.2233 147.856 53.9322 147.856 53.5782C147.856 53.3029 147.773 53.0787 147.608 52.9056C147.451 52.7326 147.25 52.5988 147.006 52.5044C146.77 52.41 146.44 52.3078 146.015 52.1976C145.48 52.056 145.044 51.9144 144.705 51.7728C144.375 51.6234 144.092 51.3952 143.856 51.0884C143.62 50.7816 143.502 50.3726 143.502 49.8612C143.502 49.3892 143.62 48.9762 143.856 48.6222C144.092 48.2682 144.422 47.9968 144.847 47.808C145.272 47.6192 145.763 47.5248 146.322 47.5248C147.117 47.5248 147.766 47.7254 148.269 48.1266C148.78 48.52 149.064 49.0628 149.119 49.755H147.632C147.608 49.4561 147.467 49.2004 147.207 48.988C146.947 48.7756 146.605 48.6694 146.18 48.6694C145.795 48.6694 145.48 48.7678 145.236 48.9644C144.993 49.1611 144.871 49.4443 144.871 49.814C144.871 50.0658 144.945 50.2742 145.095 50.4394C145.252 50.5968 145.449 50.7226 145.685 50.817C145.921 50.9114 146.243 51.0137 146.652 51.1238C147.195 51.2733 147.636 51.4228 147.974 51.5722C148.32 51.7217 148.611 51.9538 148.847 52.2684C149.091 52.5752 149.213 52.9882 149.213 53.5074C149.213 53.9244 149.099 54.3177 148.871 54.6874C148.651 55.0572 148.324 55.3561 147.891 55.5842C147.467 55.8045 146.963 55.9146 146.381 55.9146ZM155.013 55.9146C154.25 55.9146 153.546 55.7376 152.901 55.3836C152.263 55.0218 151.756 54.5222 151.378 53.885C151.009 53.24 150.824 52.5162 150.824 51.7138C150.824 50.9114 151.009 50.1916 151.378 49.5544C151.756 48.9172 152.263 48.4216 152.901 48.0676C153.546 47.7058 154.25 47.5248 155.013 47.5248C155.784 47.5248 156.488 47.7058 157.125 48.0676C157.77 48.4216 158.278 48.9172 158.647 49.5544C159.017 50.1916 159.202 50.9114 159.202 51.7138C159.202 52.5162 159.017 53.24 158.647 53.885C158.278 54.5222 157.77 55.0218 157.125 55.3836C156.488 55.7376 155.784 55.9146 155.013 55.9146ZM155.013 54.7464C155.556 54.7464 156.039 54.6245 156.464 54.3806C156.889 54.1289 157.219 53.7749 157.455 53.3186C157.699 52.8545 157.821 52.3196 157.821 51.7138C157.821 51.1081 157.699 50.5771 157.455 50.1208C157.219 49.6646 156.889 49.3145 156.464 49.0706C156.039 48.8268 155.556 48.7048 155.013 48.7048C154.47 48.7048 153.986 48.8268 153.561 49.0706C153.137 49.3145 152.802 49.6646 152.558 50.1208C152.322 50.5771 152.204 51.1081 152.204 51.7138C152.204 52.3196 152.322 52.8545 152.558 53.3186C152.802 53.7749 153.137 54.1289 153.561 54.3806C153.986 54.6245 154.47 54.7464 155.013 54.7464ZM165.824 47.631V48.7284H162.343V51.1474H165.057V52.2448H162.343V55.832H160.998V47.631H165.824ZM172.841 47.631V48.7284H170.658V55.832H169.312V48.7284H167.118V47.631H172.841ZM185.354 47.631L182.923 55.832H181.401L179.678 49.6252L177.849 55.832L176.339 55.8438L174.014 47.631H175.442L177.141 54.3098L178.982 47.631H180.492L182.203 54.2744L183.914 47.631H185.354ZM191.88 54.1564H188.446L187.856 55.832H186.452L189.39 47.6192H190.947L193.886 55.832H192.47L191.88 54.1564ZM191.502 53.059L190.169 49.2476L188.823 53.059H191.502ZM199.895 55.832L198.007 52.5516H196.98V55.832H195.635V47.631H198.467C199.097 47.631 199.628 47.7412 200.06 47.9614C200.501 48.1817 200.827 48.4767 201.04 48.8464C201.26 49.2162 201.37 49.6292 201.37 50.0854C201.37 50.6204 201.213 51.1081 200.898 51.5486C200.591 51.9813 200.115 52.2763 199.47 52.4336L201.5 55.832H199.895ZM196.98 51.4778H198.467C198.971 51.4778 199.348 51.352 199.6 51.1002C199.86 50.8485 199.989 50.5102 199.989 50.0854C199.989 49.6606 199.864 49.3302 199.612 49.0942C199.36 48.8504 198.979 48.7284 198.467 48.7284H196.98V51.4778ZM204.908 48.7166V51.1238H207.74V52.2212H204.908V54.7346H208.094V55.832H203.563V47.6192H208.094V48.7166H204.908ZM216.439 47.631C217.312 47.631 218.075 47.8002 218.728 48.1384C219.389 48.4688 219.896 48.9487 220.25 49.578C220.612 50.1995 220.793 50.9272 220.793 51.761C220.793 52.5949 220.612 53.3186 220.25 53.9322C219.896 54.5458 219.389 55.0178 218.728 55.3482C218.075 55.6708 217.312 55.832 216.439 55.832H213.76V47.631H216.439ZM216.439 54.7346C217.399 54.7346 218.134 54.475 218.645 53.9558C219.157 53.4366 219.412 52.705 219.412 51.761C219.412 50.8092 219.157 50.0658 218.645 49.5308C218.134 48.9959 217.399 48.7284 216.439 48.7284H215.105V54.7346H216.439ZM223.943 48.7166V51.1238H226.775V52.2212H223.943V54.7346H227.129V55.832H222.598V47.6192H227.129V48.7166H223.943ZM236.327 47.631L233.247 55.832H231.689L228.598 47.631H230.037L232.468 54.4514L234.911 47.631H236.327ZM239.269 48.7166V51.1238H242.101V52.2212H239.269V54.7346H242.455V55.832H237.923V47.6192H242.455V48.7166H239.269ZM245.929 54.7464H248.702V55.832H244.584V47.631H245.929V54.7464ZM254.039 55.9146C253.276 55.9146 252.572 55.7376 251.927 55.3836C251.29 55.0218 250.783 54.5222 250.405 53.885C250.035 53.24 249.85 52.5162 249.85 51.7138C249.85 50.9114 250.035 50.1916 250.405 49.5544C250.783 48.9172 251.29 48.4216 251.927 48.0676C252.572 47.7058 253.276 47.5248 254.039 47.5248C254.81 47.5248 255.514 47.7058 256.152 48.0676C256.797 48.4216 257.304 48.9172 257.674 49.5544C258.043 50.1916 258.228 50.9114 258.228 51.7138C258.228 52.5162 258.043 53.24 257.674 53.885C257.304 54.5222 256.797 55.0218 256.152 55.3836C255.514 55.7376 254.81 55.9146 254.039 55.9146ZM254.039 54.7464C254.582 54.7464 255.066 54.6245 255.491 54.3806C255.916 54.1289 256.246 53.7749 256.482 53.3186C256.726 52.8545 256.848 52.3196 256.848 51.7138C256.848 51.1081 256.726 50.5771 256.482 50.1208C256.246 49.6646 255.916 49.3145 255.491 49.0706C255.066 48.8268 254.582 48.7048 254.039 48.7048C253.497 48.7048 253.013 48.8268 252.588 49.0706C252.163 49.3145 251.829 49.6646 251.585 50.1208C251.349 50.5771 251.231 51.1081 251.231 51.7138C251.231 52.3196 251.349 52.8545 251.585 53.3186C251.829 53.7749 252.163 54.1289 252.588 54.3806C253.013 54.6245 253.497 54.7464 254.039 54.7464ZM265.759 50.0736C265.759 50.4906 265.661 50.8839 265.464 51.2536C265.267 51.6234 264.953 51.9262 264.52 52.1622C264.087 52.3904 263.533 52.5044 262.856 52.5044H261.369V55.832H260.024V47.631H262.856C263.485 47.631 264.016 47.7412 264.449 47.9614C264.89 48.1738 265.216 48.4649 265.428 48.8346C265.649 49.2044 265.759 49.6174 265.759 50.0736ZM262.856 51.407C263.367 51.407 263.749 51.293 264.001 51.0648C264.252 50.8288 264.378 50.4984 264.378 50.0736C264.378 49.1768 263.871 48.7284 262.856 48.7284H261.369V51.407H262.856ZM268.859 48.7166V51.1238H271.691V52.2212H268.859V54.7346H272.045V55.832H267.514V47.6192H272.045V48.7166H268.859ZM278.434 55.832L276.546 52.5516H275.519V55.832H274.174V47.631H277.006C277.635 47.631 278.166 47.7412 278.599 47.9614C279.039 48.1817 279.366 48.4767 279.578 48.8464C279.799 49.2162 279.909 49.6292 279.909 50.0854C279.909 50.6204 279.751 51.1081 279.437 51.5486C279.13 51.9813 278.654 52.2763 278.009 52.4336L280.038 55.832H278.434ZM275.519 51.4778H277.006C277.509 51.4778 277.887 51.352 278.139 51.1002C278.398 50.8485 278.528 50.5102 278.528 50.0854C278.528 49.6606 278.402 49.3302 278.15 49.0942C277.899 48.8504 277.517 48.7284 277.006 48.7284H275.519V51.4778ZM284.804 55.9146C284.253 55.9146 283.758 55.8202 283.317 55.6314C282.876 55.4348 282.53 55.1594 282.279 54.8054C282.027 54.4514 281.901 54.0384 281.901 53.5664H283.341C283.372 53.9204 283.51 54.2115 283.754 54.4396C284.005 54.6678 284.355 54.7818 284.804 54.7818C285.268 54.7818 285.63 54.6717 285.889 54.4514C286.149 54.2233 286.279 53.9322 286.279 53.5782C286.279 53.3029 286.196 53.0787 286.031 52.9056C285.874 52.7326 285.673 52.5988 285.429 52.5044C285.193 52.41 284.863 52.3078 284.438 52.1976C283.903 52.056 283.466 51.9144 283.128 51.7728C282.798 51.6234 282.515 51.3952 282.279 51.0884C282.043 50.7816 281.925 50.3726 281.925 49.8612C281.925 49.3892 282.043 48.9762 282.279 48.6222C282.515 48.2682 282.845 47.9968 283.27 47.808C283.695 47.6192 284.186 47.5248 284.745 47.5248C285.539 47.5248 286.188 47.7254 286.692 48.1266C287.203 48.52 287.486 49.0628 287.541 49.755H286.055C286.031 49.4561 285.889 49.2004 285.63 48.988C285.37 48.7756 285.028 48.6694 284.603 48.6694C284.218 48.6694 283.903 48.7678 283.659 48.9644C283.415 49.1611 283.293 49.4443 283.293 49.814C283.293 50.0658 283.368 50.2742 283.518 50.4394C283.675 50.5968 283.872 50.7226 284.108 50.817C284.344 50.9114 284.666 51.0137 285.075 51.1238C285.618 51.2733 286.059 51.4228 286.397 51.5722C286.743 51.7217 287.034 51.9538 287.27 52.2684C287.514 52.5752 287.636 52.9882 287.636 53.5074C287.636 53.9244 287.522 54.3177 287.294 54.6874C287.073 55.0572 286.747 55.3561 286.314 55.5842C285.889 55.8045 285.386 55.9146 284.804 55.9146Z" fill="#6C6C6C"/>
<path d="M67.7906 23.0215C67.7906 20.2748 68.404 17.8215 69.6306 15.6615C70.884 13.4748 72.5773 11.7815 74.7106 10.5815C76.8706 9.35482 79.284 8.74148 81.9506 8.74148C85.0706 8.74148 87.804 9.54148 90.1506 11.1415C92.4973 12.7415 94.1373 14.9548 95.0706 17.7815H88.6306C87.9906 16.4482 87.084 15.4481 85.9106 14.7815C84.764 14.1148 83.4306 13.7815 81.9106 13.7815C80.284 13.7815 78.8306 14.1681 77.5506 14.9415C76.2973 15.6881 75.3106 16.7548 74.5906 18.1415C73.8973 19.5282 73.5506 21.1548 73.5506 23.0215C73.5506 24.8615 73.8973 26.4882 74.5906 27.9015C75.3106 29.2882 76.2973 30.3682 77.5506 31.1415C78.8306 31.8882 80.284 32.2615 81.9106 32.2615C83.4306 32.2615 84.764 31.9282 85.9106 31.2615C87.084 30.5682 87.9906 29.5548 88.6306 28.2215H95.0706C94.1373 31.0748 92.4973 33.3015 90.1506 34.9015C87.8306 36.4748 85.0973 37.2615 81.9506 37.2615C79.284 37.2615 76.8706 36.6615 74.7106 35.4615C72.5773 34.2348 70.884 32.5415 69.6306 30.3815C68.404 28.2215 67.7906 25.7682 67.7906 23.0215ZM116.014 37.3015C113.4 37.3015 111 36.6882 108.814 35.4615C106.627 34.2348 104.894 32.5415 103.614 30.3815C102.334 28.1948 101.694 25.7282 101.694 22.9815C101.694 20.2615 102.334 17.8215 103.614 15.6615C104.894 13.4748 106.627 11.7681 108.814 10.5415C111 9.31482 113.4 8.70148 116.014 8.70148C118.654 8.70148 121.054 9.31482 123.214 10.5415C125.4 11.7681 127.12 13.4748 128.374 15.6615C129.654 17.8215 130.294 20.2615 130.294 22.9815C130.294 25.7282 129.654 28.1948 128.374 30.3815C127.12 32.5415 125.4 34.2348 123.214 35.4615C121.027 36.6882 118.627 37.3015 116.014 37.3015ZM116.014 32.3015C117.694 32.3015 119.174 31.9282 120.454 31.1815C121.734 30.4082 122.734 29.3148 123.454 27.9015C124.174 26.4882 124.534 24.8482 124.534 22.9815C124.534 21.1148 124.174 19.4881 123.454 18.1015C122.734 16.6882 121.734 15.6082 120.454 14.8615C119.174 14.1148 117.694 13.7415 116.014 13.7415C114.334 13.7415 112.84 14.1148 111.534 14.8615C110.254 15.6082 109.254 16.6882 108.534 18.1015C107.814 19.4881 107.454 21.1148 107.454 22.9815C107.454 24.8482 107.814 26.4882 108.534 27.9015C109.254 29.3148 110.254 30.4082 111.534 31.1815C112.84 31.9282 114.334 32.3015 116.014 32.3015ZM147.42 9.10148C150.353 9.10148 152.927 9.67482 155.14 10.8215C157.38 11.9681 159.1 13.6081 160.3 15.7415C161.527 17.8482 162.14 20.3015 162.14 23.1015C162.14 25.9015 161.527 28.3548 160.3 30.4615C159.1 32.5415 157.38 34.1548 155.14 35.3015C152.927 36.4482 150.353 37.0215 147.42 37.0215H137.66V9.10148H147.42ZM147.22 32.2615C150.153 32.2615 152.42 31.4615 154.02 29.8615C155.62 28.2615 156.42 26.0082 156.42 23.1015C156.42 20.1948 155.62 17.9282 154.02 16.3015C152.42 14.6481 150.153 13.8215 147.22 13.8215H143.26V32.2615H147.22ZM175.132 13.6215V20.6215H184.532V25.0615H175.132V32.4615H185.732V37.0215H169.532V9.06148H185.732V13.6215H175.132ZM208.421 37.0215L202.261 26.1415H199.621V37.0215H194.021V9.10148H204.501C206.661 9.10148 208.501 9.48815 210.021 10.2615C211.541 11.0081 212.674 12.0348 213.421 13.3415C214.194 14.6215 214.581 16.0615 214.581 17.6615C214.581 19.5015 214.048 21.1682 212.981 22.6615C211.914 24.1282 210.328 25.1415 208.221 25.7015L214.901 37.0215H208.421ZM199.621 21.9415H204.301C205.821 21.9415 206.954 21.5815 207.701 20.8615C208.448 20.1148 208.821 19.0882 208.821 17.7815C208.821 16.5015 208.448 15.5148 207.701 14.8215C206.954 14.1015 205.821 13.7415 204.301 13.7415H199.621V21.9415ZM232.486 37.3015C230.539 37.3015 228.779 36.9682 227.206 36.3015C225.659 35.6348 224.433 34.6748 223.526 33.4215C222.619 32.1682 222.153 30.6882 222.126 28.9815H228.126C228.206 30.1282 228.606 31.0348 229.326 31.7015C230.073 32.3682 231.086 32.7015 232.366 32.7015C233.673 32.7015 234.699 32.3948 235.446 31.7815C236.193 31.1415 236.566 30.3148 236.566 29.3015C236.566 28.4748 236.313 27.7948 235.806 27.2615C235.299 26.7282 234.659 26.3148 233.886 26.0215C233.139 25.7015 232.099 25.3548 230.766 24.9815C228.953 24.4482 227.473 23.9282 226.326 23.4215C225.206 22.8882 224.233 22.1015 223.406 21.0615C222.606 19.9948 222.206 18.5815 222.206 16.8215C222.206 15.1682 222.619 13.7281 223.446 12.5015C224.273 11.2748 225.433 10.3415 226.926 9.70148C228.419 9.03482 230.126 8.70148 232.046 8.70148C234.926 8.70148 237.259 9.40815 239.046 10.8215C240.859 12.2081 241.859 14.1548 242.046 16.6615H235.886C235.833 15.7015 235.419 14.9148 234.646 14.3015C233.899 13.6615 232.899 13.3415 231.646 13.3415C230.553 13.3415 229.673 13.6215 229.006 14.1815C228.366 14.7415 228.046 15.5548 228.046 16.6215C228.046 17.3681 228.286 17.9948 228.766 18.5015C229.273 18.9815 229.886 19.3815 230.606 19.7015C231.353 19.9948 232.393 20.3415 233.726 20.7415C235.539 21.2748 237.019 21.8082 238.166 22.3415C239.313 22.8748 240.299 23.6748 241.126 24.7415C241.953 25.8082 242.366 27.2082 242.366 28.9415C242.366 30.4348 241.979 31.8215 241.206 33.1015C240.433 34.3815 239.299 35.4082 237.806 36.1815C236.313 36.9282 234.539 37.3015 232.486 37.3015ZM256.021 9.10148V37.0215H250.421V9.10148H256.021Z" fill="#00061F"/>
<path d="M275.314 9.10148C278.247 9.10148 280.82 9.67482 283.034 10.8215C285.274 11.9681 286.994 13.6081 288.194 15.7415C289.42 17.8482 290.034 20.3015 290.034 23.1015C290.034 25.9015 289.42 28.3548 288.194 30.4615C286.994 32.5415 285.274 34.1548 283.034 35.3015C280.82 36.4482 278.247 37.0215 275.314 37.0215H265.554V9.10148H275.314ZM275.114 32.2615C278.047 32.2615 280.314 31.4615 281.914 29.8615C283.514 28.2615 284.314 26.0082 284.314 23.1015C284.314 20.1948 283.514 17.9282 281.914 16.3015C280.314 14.6481 278.047 13.8215 275.114 13.8215H271.154V32.2615H275.114Z" fill="#43C4D8"/>
<rect x="250.438" y="9.09375" width="5.60847" height="27.9304" fill="#43C4D8"/>
<g clip-path="url(#clip0_1047_173)">
<path d="M5.07812 33.9003V11.1448C5.07812 5.10035 8.10034 2.07812 14.1448 2.07812H30.8559L33.5226 4.1522V6.58183H14.0855C11.3991 6.58183 10.0559 7.92504 10.0559 10.6114V34.4337C10.0559 37.1201 11.3991 38.4633 14.0855 38.4633H33.5226V40.8929L30.8559 42.967H14.1448C8.10034 42.967 5.07812 39.9448 5.07812 33.9003Z" fill="#00061F"/>
<path fill-rule="evenodd" clip-rule="evenodd" d="M44.8315 24.7752H36.084V20.2715H44.5352C54.4117 20.2715 59.35 25.2098 59.35 35.0863V46.3456C59.35 56.2222 54.4117 61.1604 44.5352 61.1604H28.5352V45.5347H33.5129V56.6567H44.8315C51.192 56.6567 54.3722 53.4764 54.3722 47.1159V34.3159C54.3722 27.9555 51.192 24.7752 44.8315 24.7752ZM33.5129 35.8633V27.3532H28.5352V35.8633H33.5129ZM28.5352 20.2715H33.5165V24.7752H33.5129V24.7856H28.5352V20.2715Z" fill="#43C4D8"/>
</g>
<defs>
<clipPath id="clip0_1047_173">
<rect width="60" height="60" fill="white" transform="translate(0 1.64062)"/>
</clipPath>
</defs>
</svg>
